<?xml version="1.0" encoding="utf-8"?>
<!-- Designed by Vexels.com - 2020 All Rights Reserved - https://vexels.com/terms-and-conditions/  -->
<svg version="1.1" id="Layer_1" xmlns="http://www.w3.org/2000/svg" xmlns:xlink="http://www.w3.org/1999/xlink" x="0px" y="0px"
	 viewBox="0 0 1200 1200" enable-background="new 0 0 1200 1200" xml:space="preserve" width="75">
<g>
	<g>
		<path fill="#693455" d="M418.113,474.462c6.115,0,11.402-3.5,13.999-8.6c1.638,0.579,3.392,0.909,5.228,0.909
			c8.679,0,15.714-7.035,15.714-15.714c0-6.872-4.419-12.699-10.565-14.833c0.203-1.007,0.311-2.046,0.311-3.112
			c0-8.679-7.036-15.715-15.714-15.715c-8.679,0-15.715,7.036-15.715,15.715c0,3.9,1.43,7.462,3.782,10.209
			c-7.262,1.385-12.754,7.761-12.754,15.426C402.399,467.427,409.435,474.462,418.113,474.462z"/>
		<path fill="#693455" d="M604.702,389.259c3.895,0.207,7.527-1.033,10.394-3.237c1,7.325,7.075,13.147,14.73,13.552
			c8.667,0.459,16.064-6.194,16.523-14.861c0.323-6.106-2.892-11.572-7.848-14.435c0.665-1.605,1.088-3.339,1.185-5.172
			c0.459-8.667-6.195-16.064-14.862-16.523c-6.863-0.363-12.915,3.741-15.371,9.765c-0.994-0.255-2.027-0.418-3.09-0.475
			c-8.666-0.459-16.064,6.195-16.523,14.862S596.036,388.8,604.702,389.259z"/>
		
			<ellipse transform="matrix(0.3827 -0.9239 0.9239 0.3827 -60.9033 803.2768)" fill="#693455" cx="570.643" cy="447.213" rx="15.714" ry="15.714"/>
		<path fill="#693455" d="M711.637,330.905c8.679,0,15.714-7.035,15.714-15.714s-7.035-15.715-15.714-15.715
			s-15.714,7.036-15.714,15.715S702.958,330.905,711.637,330.905z"/>
		<path fill="#693455" d="M742.598,430.764c-0.545,11.721,8.514,21.664,20.235,22.209c5.141,0.239,9.937-1.37,13.751-4.239
			c4.453,5.484,11.116,9.136,18.728,9.49c14.169,0.658,26.19-10.293,26.848-24.463c0.405-8.711-3.589-16.596-10.009-21.543
			c2.301-3.216,3.745-7.103,3.942-11.348c0.545-11.721-8.515-21.664-20.235-22.209c-7.964-0.371-15.097,3.699-19.03,10.019
			c-3.47-2.983-7.913-4.887-12.839-5.116c-11.721-0.544-21.664,8.514-22.209,20.235c-0.265,5.706,1.758,10.981,5.244,14.965
			C744.44,422.1,742.81,426.228,742.598,430.764z"/>
		<path fill="#693455" d="M440.335,314.046c-1.805,3.385-2.548,7.368-1.834,11.44c1.701,9.688,10.934,16.164,20.622,14.463
			c4.716-0.829,8.661-3.449,11.282-7.031c3.203,1.504,6.879,2.081,10.628,1.423c9.689-1.701,16.164-10.934,14.463-20.623
			c-0.746-4.249-2.941-7.879-5.987-10.473c3.671-4.649,5.438-10.768,4.333-17.06c-2.056-11.712-13.218-19.54-24.93-17.484
			c-7.2,1.264-12.921,5.976-15.791,12.134c-3.053-1.293-6.497-1.762-10.006-1.147c-9.689,1.701-16.164,10.934-14.463,20.622
			C429.808,306.896,434.445,311.986,440.335,314.046z"/>
		<path fill="#693455" d="M820.662,873.755c12.395-14.394,16.918-45.905,7.028-61.086
			C812.678,828.22,816.878,855.858,820.662,873.755z"/>
		<path fill="#693455" d="M282.709,780.328c-11.44,6.492-20.042,13.998-29.296,23.11c-10.593,9.277,10.518,15.201,22.833,10.302
			c18.475-7.345,30.516-24.277,38.202-40.675l-3.39,0.073C300.556,773.398,291.449,775.359,282.709,780.328z"/>
		<path fill="#693455" d="M1006.269,694.593c-4.323-52.439-12.647-102.779-32.195-151.031
			c-17.829,58.85-55.769,111.214-107.504,151.959l20.989-121.734c69.215-40.376,100.939-219.182-37.492-334.541
			c-134.765-112.305-253.789-34.608-253.789-34.608s-57.679-98.055-178.806-54.795s-86.519,144.199-86.519,144.199
			s-74.983,8.652-92.287,112.475s69.215,144.198,69.215,144.198l23.404,147.443c-60.169-46.263-102.281-108.034-116.743-177.507
			c-20.271,59.606-33.358,122.353-41.69,183.875C131.169,696.151,91.159,678.951,50,679.713
			c81.724,222.534,297.106,381.464,549.966,381.464c252.931,0,468.363-159.022,550.034-381.657
			C1101.713,674.076,1053.267,676.691,1006.269,694.593z M328.022,405.402c0-31.673,23.449-57.898,53.935-62.228
			c-5.465-11.262-8.538-23.921-8.538-37.295c0-47.247,38.308-85.555,85.555-85.555c40.036,0,73.664,27.517,82.988,64.655
			c0.855-0.034,1.711-0.052,2.567-0.052c27.115,0,50.32,16.71,59.906,40.386c1.554-0.157,3.108-0.227,4.696-0.227
			c2.584,0,5.133,0.192,7.63,0.558c-4.837-7.752-7.63-16.919-7.63-26.749c0-27.971,22.663-50.635,50.635-50.635
			c17.774,0,33.402,9.149,42.428,22.995c6.601-3.527,14.16-5.535,22.174-5.535c26.034,0,47.143,21.11,47.143,47.142
			c0,6.495-1.309,12.694-3.684,18.316c9.672-6.076,21.109-9.585,33.366-9.585c34.712,0,62.857,28.146,62.857,62.856
			c0,10.04-2.357,19.538-6.548,27.954c21.022,0.228,37.976,17.321,37.976,38.396c0,15.312-8.957,28.53-21.913,34.693
			c-3.859,17.129-19.154,29.909-37.452,29.909H387.142c-6.495,2.269-13.462,3.492-20.707,3.492
			c-34.711,0-62.857-28.145-62.857-62.857c0-20.253,9.586-38.273,24.461-49.761C328.022,405.978,328.022,405.699,328.022,405.402z
			 M389.648,531.068h89.589l20.862,243.225c-35.155-7.401-68.379-18.723-98.936-33.366l-29.974-206.543
			C377.478,534.008,383.664,532.922,389.648,531.068z M622.854,531.068h99.962l-21.678,241.74
			c-26.662,6.038-54.475,9.807-83.114,11.042L622.854,531.068z M779.827,747.091l32.772-216.022h15.846l-31.573,208.12
			C791.279,741.935,785.599,744.573,779.827,747.091z M264.706,831.968c-9.909-3.21-17.951-6.478-23.112-15.366
			c-9.909,10.722-16.974,22.457-25.205,32.976c-3.238,4.13-6.917,4.578-11.156,1.867c-18.752-11.646-3.558-33.375,5.549-49.267
			c12.024-18.456,28.125-42.505,44.469-57.577c12.039-9.965,21.252-19.411,34.479-8.449c6.385,4.998,6.909,12.07,2.539,18.041
			c-3.238,4.133-7.637,7.045-9.534,11.016c12.17-4.712,23.309-8.107,35.466-3.134c16.05,6.201,26.248,22.97,14.469,43.434
			C320.384,827.394,288.738,839.571,264.706,831.968z M327.944,928.867c-12.577-8.709-15.808-20.843-12.96-35.496
			c6.543-34.156,28.455-82.369,61.05-91.134c12.638-3.785,26.449,3.908,36.941,9.083c26.335,12.989,21.948,42.88,12.592,64.564
			c-10.353,23.331-16.47,36.535-29.056,50.783C375.696,950.054,351.59,943.799,327.944,928.867z M458.277,975.929
			c-22.016-1.575-18.696-27.881-18.039-46.187c2.042-21.933,5.088-50.716,12.529-71.667c6.012-14.422,9.766-27.078,26.58-23.54
			c7.979,1.448,11.736,7.466,10.647,14.782c-0.939,5.164-3.473,9.796-3.301,14.188c8.573-9.836,16.85-18.032,29.927-19.293
			c17.091-1.986,33.926,8.101,33.034,31.698c-0.677,25.091-23.008,50.611-47.82,55.076c-10.263,1.773-18.902,2.629-27.609-2.83
			c-3.774,14.104-4.559,27.779-6.946,40.921C466.343,974.241,463.29,976.352,458.277,975.929z M608.58,988.583
			c-4.052,0.014-8.588,0.034-12.643-0.664c-11.457-2.105-19.593-9.233-24.88-19.473c-12.492-23.57-9.272-57.22-1.724-80.385
			c6.849-19.107,18.713-36.325,37.55-39.018c16.693-1.971,28.654,8.005,27.519,23.276c-0.696,5.492-2.588,10.028-8.318,8.856
			c-8.117-1.399-6-10.237-6.499-16.197c-1.472-10.967-7.159-1.164-9.053,2.898c-11.12,25.323-24.305,73.081-14.435,97.855
			c7.702,19.295,18.65,11.861,23.84-3.664c1.174-5.491,2.345-10.984,3.281-16.708c1.171-5.732,8.799-7.428,12.628-3.866
			c4.302,2.848-1.336,26.486-3.228,30.787C628.833,982.074,619.316,988.784,608.58,988.583z M702.513,981.031
			c-15.298-0.148-24.781-8.374-30.65-22.104c-13.763-31.933-22.698-84.13-0.645-109.683c8.335-10.229,24.08-11.616,35.668-13.221
			c29.085-4.038,42.233,23.157,46.661,46.355c4.535,25.118,6.885,39.479,4.47,58.336
			C753.922,971.752,730.463,980.104,702.513,981.031z M893.166,921.128c-4.259,4.506-12.759,5.936-18.817,2.887
			c-7.314-3.529-13.273-8.714-17.323-16.051c-4.555-7.895-8.818-15.136-13.739-22.084c-7.026-7.58-13.853-0.626-20.125,3.47
			c4.242,14.82,9.526,27.872,16.07,41.41c1.555,3.488,8.457,9.032,4.048,12.04c-7.943,5.616-17.871,10.297-27.657,2.377
			c-19.283-15.177-49.239-77.825-53.078-111.102c-1.213-8.597,9.104-12.404,15.669-13.495c6.029-1.118,11.042,1.353,13.683,6.703
			c6.281,14.702,10.474,28.239,15.42,41.704c-3.087-28.654-6.102-65.951,29.09-69.596c10.826-0.898,19.305,5.253,23.183,16.32
			c4.945,13.465,2.43,26.594-3.57,38.925c-2.35,4.697-5.423,8.938-8.086,13.516c14.651-0.513,21.825,8.568,27.931,19.947
			c4.12,8.088,8.578,15.766,13.133,23.663C891.083,915.266,896.896,916.598,893.166,921.128z M1015.312,834.339
			c-7.089,6.776-17.314,10.881-26.825,7.594c-12.774-4.615-25.053-10.877-37.147-17.291c-6.609-3.513-25.423-15.825-29.852-15.572
			c0.909,1.103,1.637,2.361,2.546,3.465c13.167,18.209,26.234,37.423,40.841,54.755c4.564,8.909-9.337,16.047-16.39,15.371
			c-8.243-0.62-13.351-5.685-18.824-10.446c-12.01-10.812-21.441-23.747-31.399-36.567l-34.697-42.812
			c-0.757-0.919-1.853-1.873-2.796-2.642c-3.434-3.041-3.512-5.758-0.289-9.347c7.402-8.269,17.535-10.207,27.561-5.181
			c10.171,5.213,22.047,9.593,32.223,14.807c19.528,10.175,52.373,27.97,52.373,27.97c3.845-1.442-33.248-52.901-60.493-70.938
			c-4.142-2.765-4.373-5.67-0.507-8.86c17.115-14.114,34.984-2.573,47.289,10.47c12.187,12.524,21.611,27.322,31.407,41.82
			c4.302,6.342,18.696,29.416,24.907,33.567C1020.96,828.441,1016.881,832.115,1015.312,834.339z"/>
		<path fill="#693455" d="M503.556,909.48c12.926-15.107,15.694-35.696,14.859-53.789l-2.964,1.645
			c-9.172,5.124-16.322,11.097-21.737,19.569c-7.101,11.073-11.219,21.723-15.163,34.095
			C473.498,924.142,494.941,919.554,503.556,909.48z"/>
		<path fill="#693455" d="M411.129,840.774c-0.245-0.631,2.971-9.643,4.035-14.392c1.45-5.619-8.529-9.004-12.019-10.549
			c-6.977-3.097-14.243,1.508-18.065,6.597c-7.162,9.089-14.231,17.957-20.617,27.65c-10.914,15.775-20.178,32.541-24.863,51.339
			c-1.475,5.088-2.61,10.586-1.613,15.987c1.872,8.139,14.542,16.629,24.08,8.071C382.858,906.26,399.034,865.678,411.129,840.774z"
			/>
		<path fill="#693455" d="M721.893,861.429c-0.553-0.384-2.952-9.648-4.739-14.172c-1.957-5.464-12.114-2.661-15.871-1.984
			c-7.513,1.355-10.935,9.245-11.241,15.6c-0.83,11.542-1.695,22.849-1.54,34.455c-0.174,19.182,1.572,38.258,8.246,56.443
			c1.634,5.037,3.783,10.225,7.642,14.134c6.114,5.683,21.369,5.597,24.458-6.836C735.263,931.491,725.868,888.83,721.893,861.429z"
			/>
	</g>
</g>
</svg>
